HIERARCHY
ROOT Hips
{
	OFFSET 0.000000  0.463670  0.080341
	CHANNELS 6 Xposition Yposition Zposition Zrotation Yrotation Xrotation 
	JOINT LHipJoint
	{
		OFFSET 0 0 0
		CHANNELS 3 Zrotation Yrotation Xrotation
		JOINT LeftUpLeg
		{
			OFFSET 0.949434 -0.248378 0.086503
			CHANNELS 3 Zrotation Yrotation Xrotation
			JOINT LeftLeg
			{
				OFFSET -0.076513 -3.879421 -0.177038
				CHANNELS 3 Zrotation Yrotation Xrotation
				JOINT LeftFoot
				{
					OFFSET -0.188964 -3.680973 -0.122632
					CHANNELS 3 Zrotation Yrotation Xrotation
					JOINT LeftToeBase
					{
						OFFSET 0.055451 -0.524480 1.120382
						CHANNELS 3 Zrotation Yrotation Xrotation
						End Site
						{
							OFFSET 0.007944 -0.006006 0.139660
						}
					}
				}
			}
		}
	}
	JOINT RHipJoint
	{
		OFFSET 0 0 0
		CHANNELS 3 Zrotation Yrotation Xrotation
		JOINT RightUpLeg
		{
			OFFSET -0.949434 -0.248378 0.086503
			CHANNELS 3 Zrotation Yrotation Xrotation
			JOINT RightLeg
			{
				OFFSET 0.076513 -3.879421 -0.177038
				CHANNELS 3 Zrotation Yrotation Xrotation
				JOINT RightFoot
				{
					OFFSET 0.188964 -3.680973 -0.122632
					CHANNELS 3 Zrotation Yrotation Xrotation
					JOINT RightToeBase
					{
						OFFSET -0.055451 -0.524480 1.120382
						CHANNELS 3 Zrotation Yrotation Xrotation
						End Site
						{
							OFFSET -0.007944 -0.006006 0.139660
						}
					}
				}
			}
		}
	}
	JOINT LowerBack
	{
		OFFSET 0 0 0
		CHANNELS 3 Zrotation Yrotation Xrotation
		JOINT Spine
		{
			OFFSET 0.000000 0.677144 0.028277
			CHANNELS 3 Zrotation Yrotation Xrotation
			JOINT Spine1
			{
				OFFSET 0.000000 2.156116 -0.508617
				CHANNELS 3 Zrotation Yrotation Xrotation
				JOINT Neck
				{
					OFFSET 0 0 0
					CHANNELS 3 Zrotation Yrotation Xrotation
					JOINT Neck1
					{
						OFFSET 0.000000 1.781871 0.216275
						CHANNELS 3 Zrotation Yrotation Xrotation
						JOINT Head
						{
							OFFSET 0.000000 1.015906 -0.026879
							CHANNELS 3 Zrotation Yrotation Xrotation
							End Site
							{
								OFFSET 0.000000 0.339197 0.983632
							}
						}
					}
				}
				JOINT LeftShoulder
				{
					OFFSET 0 0 0
					CHANNELS 3 Zrotation Yrotation Xrotation
					JOINT LeftArm
					{
						OFFSET 1.565866 1.184736 0.289545
						CHANNELS 3 Zrotation Yrotation Xrotation
						JOINT LeftForeArm
						{
							OFFSET 1.930940 -0.176441 -0.109244
							CHANNELS 3 Zrotation Yrotation Xrotation
							JOINT LeftHand
							{
								OFFSET 2.263412 -0.058986 0.122483
								CHANNELS 3 Zrotation Yrotation Xrotation
								JOINT LeftFingerBase
								{
									OFFSET 0 0 0
									CHANNELS 3 Zrotation Yrotation Xrotation
									JOINT LeftHandIndex1
									{
										OFFSET 0.944218 0.017559 0.358417
										CHANNELS 3 Zrotation Yrotation Xrotation
										End Site
										{
											OFFSET 0.237801 -0.022714 0.035813
										}
									}
								}
								JOINT LThumb
								{
									OFFSET 0 0 0
									CHANNELS 3 Zrotation Yrotation Xrotation
									End Site
									{
										OFFSET 0.234930 -0.092931 0.244282
									}
								}
							}
						}
					}
				}
				JOINT RightShoulder
				{
					OFFSET 0 0 0
					CHANNELS 3 Zrotation Yrotation Xrotation
					JOINT RightArm
					{
						OFFSET -1.565866 1.184736 0.289545
						CHANNELS 3 Zrotation Yrotation Xrotation
						JOINT RightForeArm
						{
							OFFSET -1.930940 -0.176441 -0.109244
							CHANNELS 3 Zrotation Yrotation Xrotation
							JOINT RightHand
							{
								OFFSET -2.263412 -0.058986 0.122483
								CHANNELS 3 Zrotation Yrotation Xrotation
								JOINT RightFingerBase
								{
									OFFSET 0 0 0
									CHANNELS 3 Zrotation Yrotation Xrotation
									JOINT RightHandIndex1
									{
										OFFSET -0.944218 0.017559 0.358417
										CHANNELS 3 Zrotation Yrotation Xrotation
										End Site
										{
											OFFSET -0.237801 -0.022714 0.035813
										}
									}
								}
								JOINT RThumb
								{
									OFFSET 0 0 0
									CHANNELS 3 Zrotation Yrotation Xrotation
									End Site
									{
										OFFSET -0.234930 -0.092931 0.244282
									}
								}
							}
						}
					}
				}
			}
		}
	}
}
MOTION
Frames: 7
Frame Time: .0083333
-2.006685 8.910939 -19.342707 0.000000 0.000000 0.000000 0.000000 0.000000 0.000000 0.000000 0.000000 0.000000 0.000000 0.000000 0.000000 0.000000 0.000000 0.000000 0.000000 0.000000 0.000000 0.000000 0.000000 0.000000 0.000000 0.000000 0.000000 0.000000 0.000000 0.000000 0.000000 0.000000 0.000000 0.000000 0.000000 0.000000 0.000000 0.000000 0.000000 0.000000 0.000000 0.000000 0.000000 0.000000 0.000000 0.000000 0.000000 0.000000 0.000000 0.000000 0.000000 0.000000 0.000000 0.000000 0.000000 0.000000 0.000000 0.000000 0.000000 0.000000 0.000000 0.000000 0.000000 0.000000 0.000000 0.000000 0.000000 0.000000 0.000000 0.000000 0.000000 0.000000 0.000000 0.000000 0.000000 0.000000 0.000000 0.000000 0.000000 0.000000 0.000000 0.000000 0.000000 0.000000 0.000000 0.000000 0.000000 0.000000 0.000000 0.000000 0.000000 0.000000 0.000000 0.000000 0.000000 0.000000
-2.006685 8.910939 -19.342707 36.816700 85.366302 54.798500 0.000000 0.000000 0.000000 1.361500 -14.415500 -26.898399 3.601300 11.610000 34.366001 1.342700 14.150200 -31.018000 3.743700 -11.811300 -35.067699 0.000000 0.000000 0.000000 -41.063801 28.089300 -32.915100 -4.555200 -12.864600 38.863800 -17.500900 26.432301 -82.723900 -10.318500 -17.585100 60.547600 -0.854300 -0.428400 -10.260400 0.706000 0.002100 -9.852600 1.197300 0.291600 -4.556900 -16.068100 -24.049400 18.003401 10.853400 -34.445999 -2.328699 1.771400 -16.561300 -0.706200 -0.000000 -0.000000 0.000000 -39.114300 11.700300 -18.931601 7.951900 -13.474800 -0.940900 -0.000000 -0.000000 52.443298 -5.788800 20.936501 -2.074700 -7.125000 0.000000 -0.000000 -32.685299 47.962601 -2.658600 -0.000000 -0.000000 0.000000 28.132198 37.665298 6.886600 -14.612000 23.602800 -3.068900 0.000000 -0.000000 -24.691200 0.164000 16.116899 0.045500 7.125000 -0.000000 -0.000000 18.485600 -14.402200 14.072600
-1.994254 8.899282 -19.305359 36.137299 84.948402 53.971802 0.000000 0.000000 0.000000 1.268801 -14.088900 -26.880501 3.645500 11.673000 34.584900 1.227900 14.772200 -30.849001 4.066200 -12.248000 -36.614899 0.000000 0.000000 0.000000 -40.708801 25.954500 -33.250301 -4.551800 -12.860500 38.848598 -17.263901 24.417999 -82.002998 -10.346800 -17.600300 60.641300 -1.540200 -1.000700 -10.623500 1.580900 -0.730700 -9.350400 2.445400 -0.035500 -3.783700 -16.231100 -23.777599 16.809900 10.441300 -33.812199 -2.535101 1.657000 -16.264601 -0.728500 -0.000000 0.000000 0.000000 -39.068199 12.344500 -21.044800 7.829200 -13.275600 -0.912500 -0.000000 -0.000000 53.229099 -5.624100 21.256901 -2.044700 -7.125000 0.000000 -0.000000 -32.727001 48.258801 -2.925600 -0.000000 0.000000 0.000000 23.203199 33.509701 14.531700 -18.422100 28.694300 -4.750200 0.000000 -0.000000 -34.926102 -5.488500 11.025500 -1.052800 7.125000 -0.000000 -0.000000 15.135000 -19.095400 9.693200
-1.980055 8.901547 -19.269779 35.742401 84.431198 53.402302 0.000000 0.000000 0.000000 1.086000 -13.812600 -26.749001 3.690600 11.736900 34.807598 1.195500 14.978900 -30.833900 4.040800 -12.214500 -36.495098 0.000000 0.000000 0.000000 -39.516300 20.672100 -34.852600 -4.618500 -12.940900 39.147598 -16.086300 19.356899 -78.488800 -10.391400 -17.624100 60.788601 -1.431700 -0.981900 -10.407500 1.438600 -0.728000 -9.321100 2.237800 -0.048300 -3.872100 -16.183201 -23.931101 16.686501 10.426700 -34.018600 -2.569700 1.591200 -16.352100 -0.705000 -0.000000 0.000000 0.000000 -37.402302 12.386300 -22.089600 7.745800 -13.139900 -0.893400 -0.000000 -0.000000 54.510101 -5.819400 21.358101 -2.125800 -7.125000 0.000000 -0.000000 -32.953701 48.316700 -3.002200 -0.000000 0.000000 0.000000 20.268499 29.437300 16.646400 -20.420000 31.145000 -5.747000 0.000000 -0.000000 -39.134701 -9.042500 7.592100 -1.204500 7.125000 -0.000000 -0.000000 12.903100 -22.347900 7.207500
-1.965801 8.891437 -19.227183 34.117401 84.026802 51.522701 0.000000 0.000000 0.000000 1.051001 -13.266900 -26.661400 3.739900 11.806000 35.049000 0.824600 16.303600 -29.695999 4.688400 -13.024100 -39.458698 0.000000 0.000000 0.000000 -37.461700 12.441800 -37.582699 -4.661600 -12.992300 39.339699 -14.147300 10.133600 -72.873901 -10.311500 -17.581301 60.524601 -1.206400 -0.987000 -10.034900 1.362800 -0.761900 -9.353800 2.033400 -0.080700 -4.111900 -16.120399 -24.073700 16.773800 10.494100 -34.219398 -2.851500 1.589300 -16.454000 -0.793300 0.000000 -0.000000 0.000000 -35.806198 12.642500 -23.124599 7.729400 -13.113300 -0.889700 -0.000000 -0.000000 55.777802 -6.005500 21.473600 -2.205400 -7.125000 0.000000 -0.000000 -33.181099 48.387798 -3.091800 0.000000 -0.000000 0.000000 18.267099 26.770201 16.347401 -20.695400 31.471100 -5.890100 0.000000 -0.000000 -39.502899 -10.974700 5.605600 -1.085200 7.125000 -0.000000 -0.000000 11.655100 -24.275600 5.951500
-1.951713 8.891105 -19.187735 29.417101 84.040100 46.594799 0.000000 0.000000 0.000000 1.663500 -12.869300 -26.570499 3.806400 11.898300 35.373001 1.051800 15.558300 -30.455999 4.189900 -12.409000 -37.194500 0.000000 0.000000 0.000000 -36.232300 11.639300 -37.651001 -4.727000 -13.069600 39.629601 -14.076600 10.554900 -72.639999 -10.378000 -17.617001 60.744301 -0.441600 -1.001700 -9.618200 1.541400 -0.826000 -9.429700 1.791500 -0.147600 -4.426900 -16.242901 -23.879101 16.835501 10.697400 -33.966999 -3.078199 1.724200 -16.342800 -0.857400 0.000000 -0.000000 0.000000 -34.442200 13.020400 -23.419800 7.760000 -13.163100 -0.896700 -0.000000 -0.000000 56.200100 -6.167700 21.995100 -2.317700 -7.125000 0.000000 -0.000000 -33.629299 48.805099 -3.524600 0.000000 -0.000000 0.000000 16.701799 25.182800 14.250300 -19.430700 29.950399 -5.244200 0.000000 -0.000000 -36.987900 -11.766300 5.810600 -1.208100 7.125000 -0.000000 -0.000000 11.058100 -24.054899 5.692700
-1.940608 8.894089 -19.144806 28.754200 83.511398 45.697800 0.000000 0.000000 0.000000 1.584700 -12.835300 -26.246300 3.857500 11.968400 35.620201 1.059000 16.090799 -31.029301 4.091700 -12.281400 -36.735001 0.000000 0.000000 0.000000 -36.031300 13.338300 -37.004200 -4.766400 -13.115800 39.803600 -14.730100 14.755200 -74.472702 -10.468300 -17.664900 61.042301 -0.566000 -1.033700 -9.217900 1.623200 -0.864900 -9.469300 1.949600 -0.158000 -4.685700 -16.174801 -23.899599 16.893999 10.706100 -33.973999 -3.334200 1.743300 -16.357500 -0.969300 -0.000000 0.000000 0.000000 -33.093498 13.263900 -22.669399 7.765600 -13.172200 -0.898000 -0.000000 -0.000000 55.574200 -6.217300 22.624701 -2.399800 -7.125000 0.000000 -0.000000 -34.054798 49.327999 -4.062700 -0.000000 0.000000 0.000000 15.374100 24.218500 10.968000 -17.729099 27.808901 -4.422100 0.000000 -0.000000 -34.395802 -12.820900 5.198900 -1.181400 7.125000 -0.000000 -0.000000 10.323600 -24.647900 5.157900
